<svg width="1920" height="1080" viewBox="0 0 1920 1080" fill="none" xmlns="http://www.w3.org/2000/svg">
<path d="M695.336 768.99C698.595 775.373 702.843 785.251 708.366 795.562C715.07 808.128 718.813 814.89 722.586 821.942C729.493 834.885 734.746 847.074 743.742 859.03C745.687 861.816 749.402 864.167 752.507 865.299C756.047 866.575 759.646 866.605 761.852 866.663C761.852 870.203 761.706 874.324 761.706 877.836C751.636 877.865 741.536 877.865 731.408 877.836C721.251 877.836 700.472 877.661 690.402 877.603C690.344 874.672 690.402 870.087 690.402 867.156C707.176 865.183 714.75 861.613 707.408 847.973C706.073 845.478 705.029 842.953 703.723 840.457L692.725 840.544H659.031C656.71 845.245 653.895 852.123 653.198 857.23C651.834 865.53 666.663 866.169 673.367 867.01L673.483 877.864C661.266 878.183 643.65 877.633 631.433 877.836C627.196 877.894 620.985 877.836 616.748 877.633L616.661 867.243C629.314 866.14 634.161 861.932 640.168 851.136C644.666 843.069 649.367 834.943 653.691 826.76L683.611 767.76L695.336 768.99ZM665.735 828.558H697.426C696.294 825.628 682.772 799.89 681.639 798.842L665.735 828.558ZM726.996 666.334C741.768 665.898 761.328 666.537 776.244 666.537L866.556 666.363V677.448H866.557V677.449H866.548C850.187 679.365 846.792 683.632 846.705 699.359C846.618 716.452 846.183 733.719 847.054 750.812C847.663 762.653 856.747 763.872 866.556 765.004L866.497 775.828C848.069 776.321 819.803 776.176 801.317 775.828C801.201 772.955 801.201 767.848 801.172 764.917C814.753 763.611 820.471 760.011 820.326 745.037C820.239 737.114 820.268 728.727 820.268 720.747V679.393H771.281C771.542 703.857 771.078 727.219 772.094 751.683C772.558 762.885 779.958 763.727 789.013 764.887C789.042 767.847 788.984 772.926 788.926 775.915C769.801 776.321 749.574 776.06 730.392 776.002L730.449 765.004C746.556 762.711 745.946 759.054 745.946 742.483C745.946 725.361 746.179 708.181 745.569 691.03C745.134 682.179 736.544 678.871 726.996 677.217L727.054 666.566V666.363L726.996 666.334ZM922.247 567.751C939.427 567.751 963.108 565.139 976.457 577.444C987.659 588.53 989.401 608.264 978.257 619.379C963.834 633.773 930.547 630.493 911.654 630.493C911.48 649.124 906.75 664.912 930.344 666.856V677.274L866.557 677.448V666.363C877.033 666.189 884.607 664.273 885.71 651.562C886.523 641.492 886.377 631.161 886.319 621.033C886.261 610.934 886.9 600.573 885.594 590.619C884.172 579.823 875.349 578.691 866.701 578.604L866.788 567.751C885.274 567.577 903.761 567.693 922.247 567.751ZM952.747 584.844C942.038 576.109 925.642 578.953 911.538 579.04C911.683 592.505 911.683 605.942 911.538 619.407C922.74 619.436 933.942 620.162 944.65 617.724C960.438 614.126 962.846 596.133 952.747 584.844ZM1004.81 431.122C1039.46 431.499 1062.25 453.7 1061.26 486.203L968.886 486.435C968.625 504.08 975.967 523.784 992.712 533.071C1003.57 539.078 1019.99 538.614 1030.61 532.229C1038.01 527.76 1041.76 522.159 1045.99 514.933C1047.85 511.016 1049.13 506.518 1050.26 502.368C1053.97 502.426 1062.7 502.455 1062.74 502.455C1058.56 528.283 1040.04 545.695 1012.94 547.669C994.25 549.033 976.896 544.941 962.27 533.507C937.37 514.034 935.164 474.42 955.392 451.32C965.694 439.567 980.581 432.341 996.571 431.122H1004.81ZM1002.17 443.921C981.249 446.213 974.836 457.357 970.482 475.785H970.511C981.248 475.988 991.464 475.669 1002.17 475.611C1011.88 475.611 1035.06 475.553 1035.14 475.552C1035.14 458.634 1019.29 444.269 1006.32 443.921H1002.17ZM1112.28 300.675C1134.91 300.326 1158.59 300.675 1181.32 300.675L1181.08 311.47C1157.87 313.444 1161.49 325.807 1161.58 345.395L1161.75 378.188C1161.64 395.31 1164.66 397.342 1181.66 398.358C1181.75 402.015 1181.52 406.484 1181.58 410.17C1170.52 410.286 1160.01 410.141 1148.78 410.17C1137.81 410.17 1126.73 410.257 1115.9 410.17V398.532C1125.57 398.271 1134.97 395.398 1135.52 387.708C1136.25 379.031 1135.9 370.469 1135.87 361.763L1135.67 313.415L1121.79 313.357L1095.91 368.147C1090.02 381.264 1085 392.351 1077.02 403.785C1069.03 415.19 1049.91 419.456 1042.57 412.172C1033.46 403.117 1039 388.898 1040.33 386.953L1049.56 384.544C1051.36 403.784 1067.26 394.295 1071.88 386.953C1078.76 375.983 1082.01 369.134 1087.14 357.787C1095.7 338.837 1104.06 319.799 1112.28 300.675ZM1244.78 213.062C1221.16 214.949 1225.89 232.041 1226.03 250.034C1244.95 250.034 1281.34 246.552 1295.8 260.51C1306.94 271.277 1305.23 290.343 1294 301.081C1280.62 312.979 1253.75 311.528 1236.57 311.528C1218.02 311.586 1199.62 311.673 1181.11 311.528L1181.34 300.733C1190.02 300.646 1198.52 299.078 1199.94 288.66C1201.25 279.025 1200.61 269.013 1200.67 259.262C1200.73 249.483 1200.87 239.47 1200.06 229.719C1198.96 217.415 1191.03 214.368 1180.59 213.004V204.53L1180.56 202.208V202.034H1244.78V213.062ZM1262.13 262.106C1251.4 259.756 1237.18 260.742 1225.92 260.771C1226.06 273.772 1226.06 286.803 1225.92 299.804V299.834C1240.05 299.921 1259.52 302.358 1270.23 293.913C1280.36 283.001 1277.92 265.589 1262.13 262.106Z" fill="#FFFDF5"/>
</svg>
