<svg width="1920" height="1080" viewBox="0 0 1920 1080" fill="none" xmlns="http://www.w3.org/2000/svg">
<path d="M1084.84 435.521C1133.2 433.888 1191.16 457.543 1196.53 517.892C1196.97 522.87 1196.95 528.075 1197.08 533.087L1030.56 533.688C1033.66 644.273 1158.87 652.427 1177.56 561.675C1184.92 561.619 1192.29 561.674 1199.64 561.822C1198.84 571.234 1192.86 592.756 1195.1 599.481C1201.65 619.201 1226.86 607.816 1234.98 595.467C1247.11 577.029 1254.64 559.35 1263.65 540.277C1278.69 508.378 1293.01 473.418 1307.43 441.248C1347.25 440.635 1389.02 441.224 1429.01 441.281L1428.88 460.592C1388.02 463.904 1394.42 486.481 1394.6 519.434L1394.92 574.976C1394.7 603.779 1400.36 612.409 1430.25 614.11L1430.13 634.998H1313.93C1313.93 634.998 1314.03 620.494 1313.91 614.393C1330.9 613.94 1346.95 611.671 1348.77 591.01C1350.03 576.416 1349.42 561.64 1349.35 546.956L1349.45 461.976L1324.15 461.885L1279.05 557.706C1268.67 579.773 1258.98 602.929 1245.8 623.375C1233.01 643.253 1205.17 651.689 1185.25 637.469C1180.25 634.385 1176.45 627.411 1175.52 615.765C1155.66 630.563 1155.66 633.772 1124.89 639.567C1067.24 650.43 994.979 621.39 987.915 555.302C984.841 526.84 988.357 511.7 999.878 488.375C1011.4 465.049 1042.07 440.556 1075.85 436.077L1076.78 435.974H1076.8C1079.79 435.713 1081.83 435.634 1084.84 435.521ZM399.402 441.966C408.219 460.898 419.467 480.376 428.992 499.215C444.675 528.71 458.792 558.523 474.77 587.881C483.774 605.061 501.986 617.829 521.433 615.64C534.179 614.223 542.06 602.679 541.47 590.83C540.121 563.75 544.804 514.15 541.119 484.667C540.393 478.872 537.83 473.384 533.362 469.744C526.037 463.768 519.595 463.189 507.746 460.457L507.859 441.27C538.646 440.612 571.906 441.27 602.943 441.304H754.804L754.588 460.446C744.7 461.398 737.885 462.453 731.126 466.864C725.91 470.266 722.531 475.958 721.488 482.195C721.193 483.941 721.012 485.631 720.978 487.093C720.173 521.861 719.855 557.287 721.295 592.02C722.146 612.295 739.178 615.187 755.7 615.856L755.473 634.952L640.307 635.008C640.308 634.928 640.42 622.096 640.33 615.811C656.602 615.142 672.624 612.794 674.087 591.998C675.97 565.247 674.235 537.873 674.564 511.044C674.655 503.661 675.108 468.099 674.564 462.52H668.463L587.532 462.634L587.554 543.803C587.577 559.225 587.078 574.489 588.518 589.854C590.548 611.49 604.632 615.527 623.138 615.731L622.877 634.975C546.335 636.018 467.251 635.054 390.527 635.008L390.266 616.298C408.795 615.425 434.899 614.699 423.049 586.793C420.158 579.977 416.824 573.366 413.388 566.789H336.766C329.883 580.929 324.791 593.006 324.337 598.937C324.122 601.795 325.358 604.528 327.184 606.648C334.339 615.005 350.736 615.505 360.76 615.834C360.806 622.127 360.659 628.647 360.602 634.952C327.297 635.076 293.992 635.02 260.699 634.782L260.62 615.969C272.583 615.425 285.114 613.531 292.473 602.883C304.958 584.797 314.71 564.011 324.859 544.393L379.392 440.159L399.402 441.966ZM1555.73 460.82C1513.94 464.154 1522.31 494.385 1522.59 526.227C1556.09 526.204 1620.45 520.081 1646.02 544.745C1665.77 563.773 1662.72 597.52 1642.83 616.525C1619.14 637.56 1571.61 635.008 1541.18 635.008C1508.38 635.11 1475.83 635.281 1443.04 635.008L1443.01 614.257C1458.35 614.11 1473.85 612.987 1476.36 594.538C1478.67 577.483 1477.55 559.747 1477.64 542.5C1477.74 525.173 1477.99 507.483 1476.59 490.235C1474.65 468.474 1460.62 463.087 1442.14 460.661L1442.06 445.726V441.622L1442.02 441.293H1555.76L1555.73 460.82ZM869.041 441.293C899.42 441.293 941.32 436.689 964.952 458.438C984.807 478.09 987.858 512.982 968.15 532.657C942.624 558.16 883.737 552.377 850.307 552.354C850.024 585.273 841.667 613.225 883.374 616.672L883.408 635.099L769.955 635.008L770.034 615.822C788.483 613.316 802.476 612.068 804.404 589.571C805.799 571.734 805.561 553.443 805.458 535.526C805.356 517.689 806.491 499.352 804.177 481.718C801.671 462.645 786.079 460.626 770.759 460.479L770.929 441.293C803.633 441.009 836.314 441.179 869.041 441.293ZM769.955 635.008V635.02L769.943 635.008H769.955ZM1586.48 547.625C1567.49 543.452 1542.3 545.232 1522.41 545.266C1522.68 568.297 1522.67 591.317 1522.39 614.348C1547.4 614.507 1581.83 618.815 1600.83 603.892C1618.75 584.558 1614.44 553.759 1586.48 547.625ZM375.559 492.662C370.411 503.378 357.858 525.83 346.461 547.693H403.352C393.861 529.47 384.596 511.123 375.57 492.662H375.559ZM923.029 471.49C904.069 456.068 875.062 461.069 850.092 461.239C850.376 485.052 850.386 508.854 850.125 532.668C869.97 532.69 889.758 533.983 908.718 529.674C936.614 523.324 940.923 491.482 923.029 471.49ZM1150.87 514.184C1150.87 476.843 1122.06 456.182 1090.7 458.325C1059.33 460.468 1034.92 482.388 1032.5 514.661L1090.7 514.297L1150.87 514.184Z" fill="#320D0D"/>
</svg>
